<svg viewBox="0 0 49 49" fill="none" xmlns="http://www.w3.org/2000/svg" preserveAspectRatio="xMidYMid meet">
  <path fill-rule="evenodd" clip-rule="evenodd" d="M24.5 38.6412C20.2617 38.6412 16.4865 36.6747 14.0283 33.6081C15.101 28.8114 19.3803 25.2246 24.5 25.2246C29.6187 25.2246 33.8984 28.8114 34.9705 33.6081C32.5125 36.6747 28.7379 38.6412 24.5 38.6412ZM24.4645 11.9035C27.2032 11.9035 29.422 14.123 29.422 16.8613C29.422 19.5994 27.2032 21.8201 24.4645 21.8201C21.7252 21.8201 19.5057 19.5994 19.5057 16.8613C19.5057 14.123 21.7252 11.9035 24.4645 11.9035ZM24.5006 4.08333C13.2239 4.08333 4.08333 13.2241 4.08333 24.5C4.08333 35.7763 13.2239 44.9167 24.5006 44.9167C35.7761 44.9167 44.9167 35.7763 44.9167 24.5C44.9167 13.2241 35.7761 4.08333 24.5006 4.08333Z" fill="#838AB6"/>
</svg>
