<svg viewBox="0 0 40 40" fill="none" xmlns="http://www.w3.org/2000/svg" preserveAspectRatio="xMidYMid meet">
  <circle cx="20" cy="20" r="20" fill="#838AB6"/>
  <path fill-rule="evenodd" clip-rule="evenodd" d="M28.0785 19.3725C26.3597 21.0927 23.8517 21.5423 21.7177 20.7228L13.3907 29.0498C12.4489 29.993 10.8965 30.092 9.92986 29.1735C8.93711 28.2317 8.92199 26.6642 9.88449 25.7017L18.2899 17.2949C17.4704 15.1609 17.9214 12.6543 19.6401 10.9342C21.3066 9.26766 23.7129 8.79466 25.8015 9.51104C26.1659 9.63754 26.28 10.0954 26.0077 10.369L22.7751 13.6017C22.3722 14.0045 22.3722 14.6577 22.7751 15.0605L23.9535 16.2389C24.355 16.6418 25.0081 16.6418 25.411 16.2389L28.645 13.0049C28.9172 12.7327 29.3765 12.8482 29.5016 13.2125C30.2194 15.3012 29.745 17.706 28.0785 19.3725Z" stroke="white" stroke-width="1.5" stroke-linecap="round" stroke-linejoin="round"/>
</svg>
