<svg preserveAspectRatio="none" width="100%" height="100%" overflow="visible" style="display: block;" viewBox="0 0 267.708 10.4207" fill="none" xmlns="http://www.w3.org/2000/svg">
<g id="Frame 85">
<path id="Line 4" d="M22.5003 5.71066C22.7766 5.43435 22.7766 4.98635 22.5003 4.71004L17.9975 0.207236C17.7212 -0.0690784 17.2732 -0.0690784 16.9969 0.207236C16.7206 0.483551 16.7206 0.931545 16.9969 1.20786L20.9994 5.21035L16.9969 9.21284C16.7206 9.48916 16.7206 9.93715 16.9969 10.2135C17.2732 10.4898 17.7212 10.4898 17.9975 10.2135L22.5003 5.71066ZM0 5.21035V5.9179H22V5.21035V4.5028H0V5.21035Z" fill="var(--stroke-0, #F0F5F8)"/>
<path id="Line 5" d="M267.5 5.71066C267.777 5.43435 267.777 4.98635 267.5 4.71004L262.998 0.207236C262.721 -0.0690784 262.273 -0.0690784 261.997 0.207236C261.721 0.483551 261.721 0.931545 261.997 1.20786L265.999 5.21035L261.997 9.21284C261.721 9.48916 261.721 9.93715 261.997 10.2135C262.273 10.4898 262.721 10.4898 262.998 10.2135L267.5 5.71066ZM243 5.21035V5.9179H267V5.21035V4.5028H243V5.21035Z" fill="var(--stroke-0, #F0F5F8)"/>
</g>
</svg>
