<svg preserveAspectRatio="none" width="100%" height="100%" overflow="visible" style="display: block;" viewBox="0 0 14.3568 12.9851" fill="none" xmlns="http://www.w3.org/2000/svg">
<g id="Group">
<path id="Vector" d="M8.71999 6.41388C9.13194 6.41388 9.4659 6.07992 9.4659 5.66796C9.4659 5.256 9.13194 4.92205 8.71999 4.92205C8.30803 4.92205 7.97407 5.256 7.97407 5.66796C7.97407 6.07992 8.30803 6.41388 8.71999 6.41388Z" fill="url(#paint0_linear_0_4)"/>
<g id="Group_2">
<path id="Vector_2" d="M0.745717 6.41328C1.15755 6.41328 1.4914 6.07943 1.4914 5.66759C1.4914 5.25576 1.15755 4.92191 0.745717 4.92191C0.333886 4.92191 3.09575e-05 5.25576 3.09575e-05 5.66759C3.09575e-05 6.07943 0.333886 6.41328 0.745717 6.41328Z" fill="url(#paint1_linear_0_4)"/>
<path id="Vector_3" d="M0.745727 8.06075C1.15756 8.06075 1.49141 7.72689 1.49141 7.31506C1.49141 6.90323 1.15756 6.56937 0.745727 6.56937C0.333896 6.56937 4.03418e-05 6.90323 4.03418e-05 7.31506C4.03418e-05 7.72689 0.333896 8.06075 0.745727 8.06075Z" fill="url(#paint2_linear_0_4)"/>
</g>
<path id="Vector_4" d="M8.7223 8.06154C9.13426 8.06154 9.46822 7.72758 9.46822 7.31562C9.46822 6.90366 9.13426 6.5697 8.7223 6.5697C8.31034 6.5697 7.97638 6.90366 7.97638 7.31562C7.97638 7.72758 8.31034 8.06154 8.7223 8.06154Z" fill="url(#paint3_linear_0_4)"/>
<path id="Vector_5" d="M10.3637 6.41342C10.7755 6.41342 11.1094 6.07956 11.1094 5.66773C11.1094 5.2559 10.7755 4.92205 10.3637 4.92205C9.95184 4.92205 9.61798 5.2559 9.61798 5.66773C9.61798 6.07956 9.95184 6.41342 10.3637 6.41342Z" fill="url(#paint4_linear_0_4)"/>
<path id="Vector_6" d="M10.3662 4.77289C10.778 4.77289 11.1118 4.43903 11.1118 4.0272C11.1118 3.61537 10.778 3.28152 10.3662 3.28152C9.95433 3.28152 9.62048 3.61537 9.62048 4.0272C9.62048 4.43903 9.95433 4.77289 10.3662 4.77289Z" fill="url(#paint5_linear_0_4)"/>
<path id="Vector_7" d="M10.3662 9.71443C10.778 9.71443 11.1118 9.38058 11.1118 8.96875C11.1118 8.55692 10.778 8.22306 10.3662 8.22306C9.95433 8.22306 9.62048 8.55692 9.62048 8.96875C9.62048 9.38058 9.95433 9.71443 10.3662 9.71443Z" fill="url(#paint6_linear_0_4)"/>
<path id="Vector_8" d="M8.72184 4.77243C9.13354 4.77243 9.46729 4.43867 9.46729 4.02697C9.46729 3.61527 9.13354 3.28152 8.72184 3.28152C8.31013 3.28152 7.97638 3.61527 7.97638 4.02697C7.97638 4.43867 8.31013 4.77243 8.72184 4.77243Z" fill="url(#paint7_linear_0_4)"/>
<g id="Group_3">
<g id="Group_4">
<path id="Vector_9" d="M7.08178 3.13475C7.49361 3.13475 7.82747 2.8009 7.82747 2.38907C7.82747 1.97724 7.49361 1.64338 7.08178 1.64338C6.66995 1.64338 6.33609 1.97724 6.33609 2.38907C6.33609 2.8009 6.66995 3.13475 7.08178 3.13475Z" fill="url(#paint8_linear_0_4)"/>
<path id="Vector_10" d="M7.08107 1.49137C7.4929 1.49137 7.82676 1.15752 7.82676 0.745686C7.82676 0.333855 7.4929 0 7.08107 0C6.66924 0 6.33538 0.333855 6.33538 0.745686C6.33538 1.15752 6.66924 1.49137 7.08107 1.49137Z" fill="url(#paint9_linear_0_4)"/>
</g>
<path id="Vector_11" d="M8.72312 3.1338C9.13482 3.1338 9.46857 2.80005 9.46857 2.38835C9.46857 1.97665 9.13482 1.6429 8.72312 1.6429C8.31141 1.6429 7.97766 1.97665 7.97766 2.38835C7.97766 2.80005 8.31141 3.1338 8.72312 3.1338Z" fill="url(#paint10_linear_0_4)"/>
</g>
<path id="Vector_12" d="M8.72184 9.69972C9.13354 9.69972 9.46729 9.36597 9.46729 8.95426C9.46729 8.54256 9.13354 8.20881 8.72184 8.20881C8.31013 8.20881 7.97638 8.54256 7.97638 8.95426C7.97638 9.36597 8.31013 9.69972 8.72184 9.69972Z" fill="url(#paint11_linear_0_4)"/>
<g id="Group_5">
<g id="Group_6">
<path id="Vector_13" d="M12.0057 6.41314C12.4176 6.41314 12.7514 6.07929 12.7514 5.66746C12.7514 5.25563 12.4176 4.92177 12.0057 4.92177C11.5939 4.92177 11.2601 5.25563 11.2601 5.66746C11.2601 6.07929 11.5939 6.41314 12.0057 6.41314Z" fill="url(#paint12_linear_0_4)"/>
<path id="Vector_14" d="M12.007 8.06061C12.4189 8.06061 12.7527 7.72675 12.7527 7.31492C12.7527 6.90309 12.4189 6.56924 12.007 6.56924C11.5952 6.56924 11.2614 6.90309 11.2614 7.31492C11.2614 7.72675 11.5952 8.06061 12.007 8.06061Z" fill="url(#paint13_linear_0_4)"/>
</g>
<path id="Vector_15" d="M13.6111 7.20556C14.0229 7.20556 14.3568 6.87171 14.3568 6.45988C14.3568 6.04805 14.0229 5.71419 13.6111 5.71419C13.1992 5.71419 12.8654 6.04805 12.8654 6.45988C12.8654 6.87171 13.1992 7.20556 13.6111 7.20556Z" fill="url(#paint14_linear_0_4)"/>
</g>
<g id="Group_7">
<path id="Vector_16" d="M5.45239 6.41774C5.86422 6.41774 6.19808 6.08388 6.19808 5.67205C6.19808 5.26022 5.86422 4.92636 5.45239 4.92636C5.04056 4.92636 4.7067 5.26022 4.7067 5.67205C4.7067 6.08388 5.04056 6.41774 5.45239 6.41774Z" fill="url(#paint15_linear_0_4)"/>
<path id="Vector_17" d="M5.45216 8.06065C5.86386 8.06065 6.19761 7.7269 6.19761 7.3152C6.19761 6.9035 5.86386 6.56974 5.45216 6.56974C5.04045 6.56974 4.7067 6.9035 4.7067 7.3152C4.7067 7.7269 5.04045 8.06065 5.45216 8.06065Z" fill="url(#paint16_linear_0_4)"/>
</g>
<g id="Group_8">
<path id="Vector_18" d="M7.07608 6.41282C7.48778 6.41282 7.82154 6.07907 7.82154 5.66736C7.82154 5.25566 7.48778 4.92191 7.07608 4.92191C6.66438 4.92191 6.33063 5.25566 6.33063 5.66736C6.33063 6.07907 6.66438 6.41282 7.07608 6.41282Z" fill="url(#paint17_linear_0_4)"/>
<path id="Vector_19" d="M7.07618 8.06028C7.48788 8.06028 7.82163 7.72653 7.82163 7.31483C7.82163 6.90313 7.48788 6.56937 7.07618 6.56937C6.66448 6.56937 6.33072 6.90313 6.33072 7.31483C6.33072 7.72653 6.66448 8.06028 7.07618 8.06028Z" fill="url(#paint18_linear_0_4)"/>
</g>
<path id="Vector_20" d="M10.3659 8.06061C10.7776 8.06061 11.1114 7.72686 11.1114 7.31516C11.1114 6.90345 10.7776 6.5697 10.3659 6.5697C9.95423 6.5697 9.62048 6.90345 9.62048 7.31516C9.62048 7.72686 9.95423 8.06061 10.3659 8.06061Z" fill="url(#paint19_linear_0_4)"/>
<g id="Group_9">
<path id="Vector_21" d="M4.03683 8.06065C4.44853 8.06065 4.78229 7.7269 4.78229 7.3152C4.78229 6.9035 4.44853 6.56974 4.03683 6.56974C3.62513 6.56974 3.29138 6.9035 3.29138 7.3152C3.29138 7.7269 3.62513 8.06065 4.03683 8.06065Z" fill="url(#paint20_linear_0_4)"/>
<path id="Vector_22" d="M4.03273 6.41727C4.44444 6.41727 4.77819 6.08352 4.77819 5.67182C4.77819 5.26012 4.44444 4.92636 4.03273 4.92636C3.62103 4.92636 3.28728 5.26012 3.28728 5.67182C3.28728 6.08352 3.62103 6.41727 4.03273 6.41727Z" fill="url(#paint21_linear_0_4)"/>
</g>
<g id="Group_10">
<path id="Vector_23" d="M2.39373 6.41774C2.80556 6.41774 3.13942 6.08388 3.13942 5.67205C3.13942 5.26022 2.80556 4.92636 2.39373 4.92636C1.9819 4.92636 1.64804 5.26022 1.64804 5.67205C1.64804 6.08388 1.9819 6.41774 2.39373 6.41774Z" fill="url(#paint22_linear_0_4)"/>
<path id="Vector_24" d="M2.39195 8.06112C2.80378 8.06112 3.13764 7.72726 3.13764 7.31543C3.13764 6.9036 2.80378 6.56974 2.39195 6.56974C1.98012 6.56974 1.64626 6.9036 1.64626 7.31543C1.64626 7.72726 1.98012 8.06112 2.39195 8.06112Z" fill="url(#paint23_linear_0_4)"/>
</g>
<g id="Group_11">
<path id="Vector_25" d="M8.72164 11.3483C9.13321 11.3483 9.46686 11.0147 9.46686 10.6031C9.46686 10.1915 9.13321 9.85786 8.72164 9.85786C8.31006 9.85786 7.97641 10.1915 7.97641 10.6031C7.97641 11.0147 8.31006 11.3483 8.72164 11.3483Z" fill="url(#paint24_linear_0_4)"/>
<g id="Group_12">
<path id="Vector_26" d="M7.08107 11.3492C7.4929 11.3492 7.82676 11.0153 7.82676 10.6035C7.82676 10.1917 7.4929 9.85783 7.08107 9.85783C6.66924 9.85783 6.33538 10.1917 6.33538 10.6035C6.33538 11.0153 6.66924 11.3492 7.08107 11.3492Z" fill="url(#paint25_linear_0_4)"/>
<path id="Vector_27" d="M7.08084 12.985C7.49254 12.985 7.82629 12.6512 7.82629 12.2395C7.82629 11.8278 7.49254 11.4941 7.08084 11.4941C6.66913 11.4941 6.33538 11.8278 6.33538 12.2395C6.33538 12.6512 6.66913 12.985 7.08084 12.985Z" fill="url(#paint26_linear_0_4)"/>
</g>
</g>
</g>
<defs>
<linearGradient id="paint0_linear_0_4" x1="9.4659" y1="5.66796" x2="7.97407" y2="5.66796" gradientUnits="userSpaceOnUse">
<stop stop-color="#9FC0FC"/>
<stop offset="1" stop-color="#24347D"/>
</linearGradient>
<linearGradient id="paint1_linear_0_4" x1="1.4914" y1="5.66759" x2="3.09575e-05" y2="5.66759" gradientUnits="userSpaceOnUse">
<stop stop-color="#9FC0FC"/>
<stop offset="1" stop-color="#24347D"/>
</linearGradient>
<linearGradient id="paint2_linear_0_4" x1="1.49141" y1="7.31506" x2="4.03418e-05" y2="7.31506" gradientUnits="userSpaceOnUse">
<stop stop-color="#9FC0FC"/>
<stop offset="1" stop-color="#24347D"/>
</linearGradient>
<linearGradient id="paint3_linear_0_4" x1="9.46822" y1="7.31562" x2="7.97638" y2="7.31562" gradientUnits="userSpaceOnUse">
<stop stop-color="#9FC0FC"/>
<stop offset="1" stop-color="#24347D"/>
</linearGradient>
<linearGradient id="paint4_linear_0_4" x1="11.1094" y1="5.66773" x2="9.61798" y2="5.66773" gradientUnits="userSpaceOnUse">
<stop stop-color="#9FC0FC"/>
<stop offset="1" stop-color="#24347D"/>
</linearGradient>
<linearGradient id="paint5_linear_0_4" x1="11.1118" y1="4.0272" x2="9.62048" y2="4.0272" gradientUnits="userSpaceOnUse">
<stop stop-color="#9FC0FC"/>
<stop offset="1" stop-color="#24347D"/>
</linearGradient>
<linearGradient id="paint6_linear_0_4" x1="11.1118" y1="8.96875" x2="9.62048" y2="8.96875" gradientUnits="userSpaceOnUse">
<stop stop-color="#9FC0FC"/>
<stop offset="1" stop-color="#24347D"/>
</linearGradient>
<linearGradient id="paint7_linear_0_4" x1="9.46729" y1="4.02697" x2="7.97638" y2="4.02697" gradientUnits="userSpaceOnUse">
<stop stop-color="#9FC0FC"/>
<stop offset="1" stop-color="#24347D"/>
</linearGradient>
<linearGradient id="paint8_linear_0_4" x1="7.82747" y1="2.38907" x2="6.33609" y2="2.38907" gradientUnits="userSpaceOnUse">
<stop stop-color="#9FC0FC"/>
<stop offset="1" stop-color="#24347D"/>
</linearGradient>
<linearGradient id="paint9_linear_0_4" x1="7.82676" y1="0.745686" x2="6.33538" y2="0.745686" gradientUnits="userSpaceOnUse">
<stop stop-color="#9FC0FC"/>
<stop offset="1" stop-color="#24347D"/>
</linearGradient>
<linearGradient id="paint10_linear_0_4" x1="9.46857" y1="2.38835" x2="7.97766" y2="2.38835" gradientUnits="userSpaceOnUse">
<stop stop-color="#9FC0FC"/>
<stop offset="1" stop-color="#24347D"/>
</linearGradient>
<linearGradient id="paint11_linear_0_4" x1="9.46729" y1="8.95426" x2="7.97638" y2="8.95426" gradientUnits="userSpaceOnUse">
<stop stop-color="#9FC0FC"/>
<stop offset="1" stop-color="#24347D"/>
</linearGradient>
<linearGradient id="paint12_linear_0_4" x1="12.7514" y1="5.66746" x2="11.2601" y2="5.66746" gradientUnits="userSpaceOnUse">
<stop stop-color="#9FC0FC"/>
<stop offset="1" stop-color="#24347D"/>
</linearGradient>
<linearGradient id="paint13_linear_0_4" x1="12.7527" y1="7.31492" x2="11.2614" y2="7.31492" gradientUnits="userSpaceOnUse">
<stop stop-color="#9FC0FC"/>
<stop offset="1" stop-color="#24347D"/>
</linearGradient>
<linearGradient id="paint14_linear_0_4" x1="14.3568" y1="6.45988" x2="12.8654" y2="6.45988" gradientUnits="userSpaceOnUse">
<stop stop-color="#9FC0FC"/>
<stop offset="1" stop-color="#24347D"/>
</linearGradient>
<linearGradient id="paint15_linear_0_4" x1="6.19808" y1="5.67205" x2="4.7067" y2="5.67205" gradientUnits="userSpaceOnUse">
<stop stop-color="#9FC0FC"/>
<stop offset="1" stop-color="#24347D"/>
</linearGradient>
<linearGradient id="paint16_linear_0_4" x1="6.19761" y1="7.3152" x2="4.7067" y2="7.3152" gradientUnits="userSpaceOnUse">
<stop stop-color="#9FC0FC"/>
<stop offset="1" stop-color="#24347D"/>
</linearGradient>
<linearGradient id="paint17_linear_0_4" x1="7.82154" y1="5.66736" x2="6.33063" y2="5.66736" gradientUnits="userSpaceOnUse">
<stop stop-color="#9FC0FC"/>
<stop offset="1" stop-color="#24347D"/>
</linearGradient>
<linearGradient id="paint18_linear_0_4" x1="7.82163" y1="7.31483" x2="6.33072" y2="7.31483" gradientUnits="userSpaceOnUse">
<stop stop-color="#9FC0FC"/>
<stop offset="1" stop-color="#24347D"/>
</linearGradient>
<linearGradient id="paint19_linear_0_4" x1="11.1114" y1="7.31516" x2="9.62048" y2="7.31516" gradientUnits="userSpaceOnUse">
<stop stop-color="#9FC0FC"/>
<stop offset="1" stop-color="#24347D"/>
</linearGradient>
<linearGradient id="paint20_linear_0_4" x1="4.78229" y1="7.3152" x2="3.29138" y2="7.3152" gradientUnits="userSpaceOnUse">
<stop stop-color="#9FC0FC"/>
<stop offset="1" stop-color="#24347D"/>
</linearGradient>
<linearGradient id="paint21_linear_0_4" x1="4.77819" y1="5.67182" x2="3.28728" y2="5.67182" gradientUnits="userSpaceOnUse">
<stop stop-color="#9FC0FC"/>
<stop offset="1" stop-color="#24347D"/>
</linearGradient>
<linearGradient id="paint22_linear_0_4" x1="3.13942" y1="5.67205" x2="1.64804" y2="5.67205" gradientUnits="userSpaceOnUse">
<stop stop-color="#9FC0FC"/>
<stop offset="1" stop-color="#24347D"/>
</linearGradient>
<linearGradient id="paint23_linear_0_4" x1="3.13764" y1="7.31543" x2="1.64626" y2="7.31543" gradientUnits="userSpaceOnUse">
<stop stop-color="#9FC0FC"/>
<stop offset="1" stop-color="#24347D"/>
</linearGradient>
<linearGradient id="paint24_linear_0_4" x1="9.46686" y1="10.6031" x2="7.97641" y2="10.6031" gradientUnits="userSpaceOnUse">
<stop stop-color="#9FC0FC"/>
<stop offset="1" stop-color="#24347D"/>
</linearGradient>
<linearGradient id="paint25_linear_0_4" x1="7.82676" y1="10.6035" x2="6.33538" y2="10.6035" gradientUnits="userSpaceOnUse">
<stop stop-color="#9FC0FC"/>
<stop offset="1" stop-color="#24347D"/>
</linearGradient>
<linearGradient id="paint26_linear_0_4" x1="7.82629" y1="12.2395" x2="6.33538" y2="12.2395" gradientUnits="userSpaceOnUse">
<stop stop-color="#9FC0FC"/>
<stop offset="1" stop-color="#24347D"/>
</linearGradient>
</defs>
</svg>
